<svg width="231" height="72" viewBox="0 0 231 72" fill="none" xmlns="http://www.w3.org/2000/svg">
<path d="M0.56 35.424C3.58933 34.4853 5.552 33.2053 6.448 31.584C7.344 29.9627 7.792 28.128 7.792 26.08C7.792 24.928 7.68533 23.648 7.472 22.24C7.30133 20.832 7.10933 19.4667 6.896 18.144C6.64 16.736 6.40533 15.264 6.192 13.728C6.02133 12.1493 5.936 10.6987 5.936 9.376C5.936 6.304 6.704 4.064 8.24 2.656C9.776 1.248 11.9733 0.543999 14.832 0.543999H16.816V1.696H14.832C12.3573 1.696 10.4587 2.29333 9.136 3.488C7.856 4.68267 7.216 6.64533 7.216 9.376C7.216 11.7227 7.55733 14.8587 8.24 18.784C8.79467 22.0267 9.072 24.4587 9.072 26.08C9.072 28.5973 8.432 30.752 7.152 32.544C5.91467 34.2933 3.97333 35.488 1.328 36.128V36.256C3.97333 36.896 5.91467 38.112 7.152 39.904C8.432 41.6533 9.072 43.7867 9.072 46.304C9.072 47.9253 8.79467 50.3573 8.24 53.6C7.55733 57.5253 7.216 60.6613 7.216 63.008C7.216 65.7387 7.856 67.7013 9.136 68.896C10.4587 70.0907 12.3573 70.688 14.832 70.688H16.816V71.84H14.832C11.9733 71.84 9.776 71.136 8.24 69.728C6.704 68.32 5.936 66.08 5.936 63.008C5.936 61.6853 6.02133 60.256 6.192 58.72C6.40533 57.1413 6.64 55.648 6.896 54.24C7.10933 52.9173 7.30133 51.552 7.472 50.144C7.68533 48.736 7.792 47.456 7.792 46.304C7.792 44.256 7.344 42.4213 6.448 40.8C5.552 39.1787 3.58933 37.8987 0.56 36.96V35.424ZM23.595 58.848H40.875V60H22.315V14.944H23.595V58.848ZM62.605 59.296C66.4877 59.296 69.7517 58.3147 72.397 56.352C75.0423 54.3893 76.6423 51.7013 77.197 48.288H78.477C77.8797 51.9147 76.173 54.8587 73.357 57.12C70.5837 59.3387 66.9997 60.448 62.605 60.448C59.405 60.448 56.5463 59.744 54.029 58.336C51.5117 56.928 49.5277 54.88 48.077 52.192C46.669 49.504 45.965 46.3467 45.965 42.72C45.965 39.0933 46.669 35.936 48.077 33.248C49.5277 30.56 51.5117 28.512 54.029 27.104C56.5463 25.696 59.405 24.992 62.605 24.992C65.9757 24.992 68.8557 25.7173 71.245 27.168C73.6343 28.576 75.4263 30.4107 76.621 32.672C77.8583 34.9333 78.477 37.3227 78.477 39.84C78.477 41.376 78.4557 42.528 78.413 43.296H47.245C47.2877 46.8373 48.013 49.8027 49.421 52.192C50.8717 54.5813 52.749 56.3733 55.053 57.568C57.357 58.72 59.8743 59.296 62.605 59.296ZM62.605 26.144C59.8743 26.144 57.357 26.7413 55.053 27.936C52.749 29.088 50.8717 30.8587 49.421 33.248C48.013 35.6373 47.2877 38.6027 47.245 42.144H77.325C77.5383 38.6027 76.9623 35.6373 75.597 33.248C74.2743 30.8587 72.4397 29.088 70.093 27.936C67.789 26.7413 65.293 26.144 62.605 26.144ZM100.425 13.92C96.7125 13.92 94.1312 14.6453 92.6805 16.096C91.2298 17.504 90.5045 19.808 90.5045 23.008V25.44H100.425V26.784H90.5045V60H89.2245V26.784H83.5925V25.44H89.2245V23.008C89.2245 19.5093 90.0778 16.9067 91.7845 15.2C93.4912 13.4933 96.3712 12.64 100.425 12.64V13.92ZM110.88 26.72V50.912C110.88 53.0027 111.114 54.6027 111.584 55.712C112.053 56.8213 112.8 57.6107 113.824 58.08C114.848 58.5067 116.277 58.72 118.112 58.72H121.76V60H117.984C114.997 60 112.842 59.3173 111.52 57.952C110.24 56.5867 109.6 54.24 109.6 50.912V26.72H103.968V25.44H109.6V16.608H110.88V25.44H121.76V26.72H110.88ZM142.105 60.448C139.246 60.448 136.75 59.936 134.617 58.912C132.526 57.888 130.905 56.544 129.753 54.88C128.601 53.1733 127.918 51.3387 127.705 49.376H128.985C129.198 50.8693 129.731 52.3627 130.585 53.856C131.481 55.3493 132.867 56.6293 134.745 57.696C136.665 58.7627 139.118 59.296 142.105 59.296C144.494 59.296 146.606 58.848 148.441 57.952C150.275 57.0133 151.683 55.776 152.665 54.24C153.646 52.704 154.137 50.9973 154.137 49.12C154.137 46.688 153.582 44.768 152.473 43.36C151.363 41.9093 149.977 40.8427 148.313 40.16C146.691 39.4773 144.494 38.7733 141.721 38.048C138.819 37.28 136.494 36.512 134.745 35.744C132.995 34.976 131.502 33.8027 130.265 32.224C129.07 30.6027 128.473 28.4267 128.473 25.696C128.473 23.7333 129.006 21.8987 130.073 20.192C131.182 18.4427 132.739 17.056 134.745 16.032C136.793 15.008 139.118 14.496 141.721 14.496C144.366 14.496 146.649 14.9653 148.569 15.904C150.489 16.8427 151.982 18.0373 153.049 19.488C154.158 20.896 154.883 22.3893 155.225 23.968H153.945C153.646 22.7307 153.027 21.472 152.089 20.192C151.15 18.912 149.806 17.8453 148.057 16.992C146.307 16.096 144.195 15.648 141.721 15.648C139.545 15.648 137.539 16.0747 135.705 16.928C133.913 17.7387 132.462 18.912 131.353 20.448C130.286 21.9413 129.753 23.6907 129.753 25.696C129.753 28.1707 130.307 30.1547 131.417 31.648C132.569 33.0987 133.977 34.1867 135.641 34.912C137.305 35.5947 139.523 36.2987 142.297 37.024C145.198 37.792 147.502 38.56 149.209 39.328C150.958 40.0533 152.43 41.2053 153.625 42.784C154.819 44.32 155.417 46.432 155.417 49.12C155.417 50.9973 154.905 52.8107 153.881 54.56C152.899 56.3093 151.406 57.7387 149.401 58.848C147.395 59.9147 144.963 60.448 142.105 60.448ZM181.281 60L165.345 43.808V60H164.065V12.64H165.345V41.248L180.961 25.44H182.817L165.793 42.592L183.073 60H181.281ZM189.955 16.608C189.486 16.608 189.08 16.4587 188.739 16.16C188.44 15.8187 188.291 15.392 188.291 14.88C188.291 14.368 188.44 13.9627 188.739 13.664C189.08 13.3227 189.486 13.152 189.955 13.152C190.424 13.152 190.808 13.3227 191.107 13.664C191.448 13.9627 191.619 14.368 191.619 14.88C191.619 15.392 191.448 15.8187 191.107 16.16C190.808 16.4587 190.424 16.608 189.955 16.608ZM190.595 25.44V60H189.315V25.44H190.595ZM216.351 24.672C220.404 24.672 223.732 25.9307 226.335 28.448C228.937 30.9653 230.239 34.7627 230.239 39.84V60H229.023V39.712C229.023 35.1893 227.892 31.7547 225.631 29.408C223.369 27.0187 220.276 25.824 216.351 25.824C212.255 25.824 208.969 27.168 206.495 29.856C204.02 32.5013 202.783 36.4267 202.783 41.632V60H201.503V25.44H202.783V34.528C203.593 31.328 205.215 28.896 207.647 27.232C210.079 25.5253 212.98 24.672 216.351 24.672Z" fill="white"/>
</svg>
